<svg id="Layer_1" data-name="Layer 1" xmlns="http://www.w3.org/2000/svg" viewBox="0 0 98.57 98.57"><title>byome-logo</title><path d="M25.26,51.65a25.64,25.64,0,1,1,51.29,0c0,.15,0,.31,0,.47l6.25,6.66A32.66,32.66,0,0,0,50.91,19h0A32.67,32.67,0,0,0,19,58.78l6.26-6.66C25.28,52,25.26,51.8,25.26,51.65Z" transform="translate(-1.63 -2.25)"/><path d="M100.19,51.54A49.34,49.34,0,0,0,50.91,2.25h0a49.28,49.28,0,0,0,0,98.57h0A49.34,49.34,0,0,0,100.19,51.54ZM14.72,73.19h0a41.84,41.84,0,0,1-6-21.65,42.25,42.25,0,1,1,84.49,0,41.83,41.83,0,0,1-6,21.65h0l-6.91-7h0l-5.35-5.44h0l-2.17-2.21-2.34-2.39L63.68,62l-.35-.37A16,16,0,0,0,50.91,35.49h0A16,16,0,0,0,38.49,61.67l-.35.37-6.66-5.91-2.35,2.39L27,60.74h0l-5.34,5.44h0ZM50.91,48.74h0l-7.47,7.77a9,9,0,1,1,14.94,0l-7.47-7.77Zm0,45A42.14,42.14,0,0,1,18.85,79l.87-.85c3.1-3.15,8-8.1,12.09-12.29l6.72,6L50.91,58.9,63.29,71.79l6.71-6C74.11,70,79,75,82.09,78.12L83,79A42.15,42.15,0,0,1,50.91,93.79Z" transform="translate(-1.63 -2.25)"/></svg>